<?xml version="1.0" encoding="UTF-8"?>
<svg width="28px" height="28px" viewBox="0 0 28 28" version="1.1" xmlns="http://www.w3.org/2000/svg" xmlns:xlink="http://www.w3.org/1999/xlink">
    <!-- Generator: Sketch 50.2 (55047) - http://www.bohemiancoding.com/sketch -->
    <title>ic_spocr</title>
    <desc>Created with Sketch.</desc>
    <defs></defs>
    <g id="ic_spocr" stroke="none" stroke-width="1" fill="none" fill-rule="evenodd">
        <g id="ic_spocr_3" transform="translate(3.000000, 1.000000)" fill="#D7DAE0" fill-rule="nonzero">
            <path d="M11.0002531,25 C10.9478625,25 10.8954719,24.9864999 10.8489025,24.9597498 L0.1516037,18.8597192 C0.0579586765,18.8064689 0,18.7074684 0,18.6007179 L0,6.39965657 C0,6.29265603 0.0577055819,6.19415554 0.151350605,6.14090527 L10.8489025,0.0406246315 C10.9926603,-0.0428757879 11.1786848,0.00662446073 11.2624592,0.14987518 C11.3462335,0.292875899 11.2966269,0.475876818 11.1516037,0.558127231 L0.60590861,6.57265744 L0.60590861,18.427717 L11.0002531,24.3557468 L21.3945976,18.427717 L21.3945976,6.39965657 C21.3945976,6.23440574 21.5300032,6.10065507 21.6972988,6.10065507 C21.8645944,6.10065507 22,6.23440574 22,6.39965657 L22,18.6009679 C22,18.7077184 21.9420413,18.8064689 21.8486494,18.8597192 L11.1513506,24.9597498 C11.1047812,24.9864999 11.0526437,25 11.0002531,25 Z" id="Shape"></path>
            <path d="M4.19526942,8.68544601 C4.15027906,8.68544601 4.10453886,8.6753458 4.06129812,8.65363036 L0.164883055,6.67626242 C0.017414655,6.60126838 -0.0423225444,6.41946466 0.0319115486,6.27023411 C0.106145642,6.12150857 0.284857347,6.06014982 0.433325533,6.13564886 L4.3297406,8.1130168 C4.477209,8.18801084 4.5369462,8.36981455 4.46271211,8.51904511 C4.41022335,8.62459226 4.30474596,8.68544601 4.19526942,8.68544601 Z" id="Shape"></path>
            <path d="M10.9408602,25 C10.7774346,25 10.6451613,24.8638505 10.6451613,24.6956358 L10.6451613,20.2574158 C10.6451613,20.0892012 10.7774346,19.9530516 10.9408602,19.9530516 C11.1042858,19.9530516 11.2365591,20.0892012 11.2365591,20.2574158 L11.2365591,24.6953813 C11.2365591,24.8638505 11.1042858,25 10.9408602,25 Z" id="Shape"></path>
            <path d="M10.8209462,20.4225352 C10.7732926,20.4225352 10.7251425,20.4106849 10.6804672,20.38648 L4.05958932,16.766588 C3.96328925,16.714144 3.903474,16.6117775 3.903474,16.5008384 L3.90322581,8.28277327 C3.90322581,8.1161125 4.03601069,7.98122066 4.20031648,7.98122066 C4.36437407,7.98122066 4.49715896,8.1161125 4.49715896,8.28277327 L4.49740716,16.3203103 L10.9619216,19.8549809 C11.1063717,19.933899 11.1604784,20.1172006 11.082793,20.2639427 C11.0291827,20.3647965 10.9266777,20.4225352 10.8209462,20.4225352 Z" id="Shape"></path>
            <path d="M4.20050059,8.56807512 C4.09873705,8.56807512 3.99945555,8.51623728 3.94410612,8.42218864 C3.86120607,8.28197963 3.90836478,8.10079405 4.04959271,8.01834721 L10.6706758,4.14902302 C10.8119037,4.06608248 10.9943335,4.11273653 11.0772335,4.25393292 C11.1603818,4.39414193 11.1132231,4.57508066 10.971747,4.65777435 L4.35091206,8.52709854 C4.30350514,8.55474539 4.25163056,8.56807512 4.20050059,8.56807512 Z" id="Shape"></path>
            <path d="M4.43703626,16.7840376 C4.33528076,16.7840376 4.2360071,16.7321997 4.18066203,16.6381511 C4.09776853,16.4979421 4.14492351,16.3167565 4.2861403,16.2343096 L10.9071971,12.3649855 C11.0484138,12.2820449 11.2308292,12.328699 11.3139709,12.4698954 C11.3968644,12.6101044 11.3497094,12.7910431 11.2082444,12.8737368 L4.58743585,16.743061 C4.54003268,16.7707078 4.48816219,16.7840376 4.43703626,16.7840376 Z" id="Shape"></path>
            <path d="M10.9408602,12.9107981 C10.7774346,12.9107981 10.6451613,12.7767883 10.6451613,12.6109668 L10.6451613,4.40756205 C10.6451613,4.24199104 10.7774346,4.10798122 10.9408602,4.10798122 C11.1042858,4.10798122 11.2365591,4.24199104 11.2365591,4.40756205 L11.2365591,12.6109668 C11.2365591,12.7767883 11.1042858,12.9107981 10.9408602,12.9107981 Z" id="Shape"></path>
            <path d="M11.0001265,25 C10.9477366,25 10.8953466,24.9864999 10.8487777,24.9597498 L0.151601956,18.8597192 C0.0579580098,18.8064689 0,18.7074684 0,18.6007179 L0,6.39965657 C0,6.23440574 0.135404084,6.10065507 0.30295082,6.10065507 C0.470244464,6.10065507 0.605648548,6.23440574 0.605648548,6.39965657 L0.605648548,18.427717 L10.9998735,24.3557468 L21.3940984,18.427717 L21.3940984,6.57265744 L10.8487777,0.558127231 C10.7037561,0.475626816 10.6541501,0.292875899 10.7379235,0.14987518 C10.8211907,0.00662446073 11.0067069,-0.0428757879 11.1514754,0.0406246315 L21.8486511,6.14090527 C21.942042,6.19415554 22,6.29265603 22,6.39965657 L22,18.6009679 C22,18.7077184 21.942042,18.8064689 21.8486511,18.8597192 L11.1514754,24.9597498 C11.1046534,24.9864999 11.0525165,25 11.0001265,25 Z" id="Shape"></path>
            <path d="M17.8045179,8.68544601 C17.6950223,8.68544601 17.5895267,8.62458704 17.5370288,8.51903082 C17.4632818,8.36978746 17.5227794,8.18796814 17.6700234,8.11296767 L21.566614,6.13542999 C21.7156079,6.06042952 21.8938506,6.12128849 21.9683475,6.2700268 C22.0420945,6.41927016 21.982597,6.60108948 21.835353,6.67608995 L17.9387624,8.65362763 C17.8955141,8.67534494 17.849766,8.68544601 17.8045179,8.68544601 Z" id="Shape"></path>
            <path d="M10.9408602,25 C10.7774346,25 10.6451613,24.8642533 10.6451613,24.6965363 L10.6451613,20.0220273 C10.6451613,19.8540566 10.7774346,19.7183099 10.9408602,19.7183099 C11.1042858,19.7183099 11.2365591,19.8540566 11.2365591,20.0220273 L11.2365591,24.6965363 C11.2365591,24.8642533 11.1042858,25 10.9408602,25 Z" id="Shape"></path>
            <path d="M10.9424742,20.4225352 C10.83675,20.4225352 10.734252,20.3647965 10.6806454,20.2639427 C10.6029654,20.1172006 10.6570684,19.933899 10.8015085,19.8549809 L17.26533,16.3203103 L17.2663228,8.28277327 C17.2663228,8.1161125 17.399843,7.98122066 17.563393,7.98122066 C17.7274393,7.98122066 17.8602151,8.1161125 17.8602151,8.28277327 L17.8589742,16.5008384 C17.8589742,16.6115254 17.7994112,16.714144 17.7028696,16.766588 L11.0829435,20.3867321 C11.0382713,20.4106849 10.9901246,20.4225352 10.9424742,20.4225352 Z" id="Shape"></path>
            <path d="M17.5630228,8.56807512 C17.5118928,8.56807512 17.45977,8.55474588 17.4128595,8.52710006 L10.7915282,4.65791906 C10.6503003,4.57547527 10.6031416,4.3942964 10.6860416,4.25409258 C10.7694381,4.11265458 10.9511232,4.06600225 11.0925993,4.14918656 L17.7136824,8.01836755 C17.8551586,8.10081135 17.9023173,8.28199022 17.819169,8.42219403 C17.7635714,8.5162392 17.6650345,8.56807512 17.5630228,8.56807512 Z" id="Shape"></path>
            <path d="M17.5627206,16.7840376 C17.5115891,16.7840376 17.4599613,16.7707082 17.4130495,16.743062 L10.7915323,12.873833 C10.6503004,12.7911413 10.6031404,12.610207 10.6860428,12.4700015 C10.7694416,12.3288086 10.9511318,12.2819088 11.0926119,12.3650942 L17.7133845,16.23457 C17.8548646,16.3170148 17.902521,16.4979491 17.8191222,16.6384015 C17.7637712,16.732201 17.6647352,16.7840376 17.5627206,16.7840376 Z" id="Shape"></path>
            <path d="M10.9408602,12.9107981 C10.7774346,12.9107981 10.6451613,12.7767883 10.6451613,12.6109668 L10.6451613,4.40756205 C10.6451613,4.24199104 10.7774346,4.10798122 10.9408602,4.10798122 C11.1042858,4.10798122 11.2365591,4.24199104 11.2365591,4.40756205 L11.2365591,12.6109668 C11.2365591,12.7767883 11.1042858,12.9107981 10.9408602,12.9107981 Z" id="Shape"></path>
        </g>
    </g>
</svg>