<?xml version="1.0" encoding="utf-8"?>
<!-- Generator: Adobe Illustrator 22.1.0, SVG Export Plug-In . SVG Version: 6.00 Build 0)  -->
<svg version="1.1" id="Layer_1" xmlns="http://www.w3.org/2000/svg" xmlns:xlink="http://www.w3.org/1999/xlink" x="0px" y="0px"
	 viewBox="0 0 28 28" style="enable-background:new 0 0 28 28;" xml:space="preserve">
<style type="text/css">
	.st0{fill:#D7DAE0;}
</style>
<title>ic_spocr</title>
<desc>Created with Sketch.</desc>
<g id="ic_spocr">
	<g id="ic_spocr_3" transform="translate(3.000000, 1.000000)">
		<path class="st0" d="M11,25.5c-0.1,0-0.3,0-0.4-0.1l-10.7-6.1c-0.2-0.1-0.4-0.4-0.4-0.7V6.4c0-0.3,0.2-0.6,0.4-0.7l10.7-6.1
			c0.1-0.1,0.3-0.1,0.4-0.1c0.3,0,0.6,0.2,0.7,0.4c0.1,0.2,0.1,0.4,0.1,0.6c-0.1,0.2-0.2,0.4-0.4,0.5L1.1,6.9v11.3l9.9,5.6l9.9-5.6
			V6.4c0-0.4,0.4-0.8,0.8-0.8s0.8,0.4,0.8,0.8v12.2c0,0.3-0.2,0.5-0.4,0.7l-10.7,6.1C11.3,25.5,11.1,25.5,11,25.5z"/>
		<path id="Shape" class="st0" d="M11,25c-0.1,0-0.1,0-0.2,0L0.2,18.9C0.1,18.8,0,18.7,0,18.6V6.4c0-0.1,0.1-0.2,0.2-0.3L10.8,0
			C11,0,11.2,0,11.3,0.1c0.1,0.1,0,0.3-0.1,0.4l-10.5,6v11.9L11,24.4l10.4-5.9v-12c0-0.2,0.1-0.3,0.3-0.3S22,6.2,22,6.4v12.2
			c0,0.1-0.1,0.2-0.2,0.3L11.2,25C11.1,25,11.1,25,11,25z"/>
		<path class="st0" d="M4.2,9.2c-0.1,0-0.2,0-0.4-0.1l-3.9-2C-0.5,6.9-0.6,6.4-0.4,6C-0.3,5.8,0,5.6,0.3,5.6c0.1,0,0.2,0,0.4,0.1
			l3.9,2c0.4,0.2,0.6,0.7,0.4,1.1C4.8,9,4.5,9.2,4.2,9.2z"/>
		<path id="Shape_1_" class="st0" d="M4.2,8.7c0,0-0.1,0-0.1,0l-3.9-2C0,6.6,0,6.4,0,6.3c0.1-0.1,0.3-0.2,0.4-0.1l3.9,2
			c0.1,0.1,0.2,0.3,0.1,0.4C4.4,8.6,4.3,8.7,4.2,8.7z"/>
		<path class="st0" d="M10.9,25.5c-0.4,0-0.8-0.4-0.8-0.8v-4.4c0-0.4,0.4-0.8,0.8-0.8c0.4,0,0.8,0.4,0.8,0.8v4.4
			C11.7,25.1,11.4,25.5,10.9,25.5z"/>
		<path id="Shape_2_" class="st0" d="M10.9,25c-0.2,0-0.3-0.1-0.3-0.3v-4.4c0-0.2,0.1-0.3,0.3-0.3c0.2,0,0.3,0.1,0.3,0.3v4.4
			C11.2,24.9,11.1,25,10.9,25z"/>
		<path class="st0" d="M10.8,20.9c-0.1,0-0.3,0-0.4-0.1l-6.6-3.6c-0.3-0.1-0.4-0.4-0.4-0.7V8.3c0-0.4,0.4-0.8,0.8-0.8S5,7.8,5,8.3
			L5,16l6.2,3.4c0.4,0.2,0.5,0.7,0.3,1.1C11.4,20.8,11.1,20.9,10.8,20.9z"/>
		<path id="Shape_3_" class="st0" d="M10.8,20.4c0,0-0.1,0-0.1,0l-6.6-3.6c-0.1-0.1-0.2-0.2-0.2-0.3l0-8.2C3.9,8.1,4,8,4.2,8
			c0.2,0,0.3,0.1,0.3,0.3l0,8l6.5,3.5c0.1,0.1,0.2,0.3,0.1,0.4C11,20.4,10.9,20.4,10.8,20.4z"/>
		<path class="st0" d="M4.2,9.1c-0.3,0-0.5-0.2-0.7-0.4C3.4,8.5,3.4,8.3,3.4,8.1c0.1-0.2,0.2-0.4,0.4-0.5l6.6-3.9
			c0.1-0.1,0.3-0.1,0.4-0.1c0.3,0,0.5,0.2,0.7,0.4c0.1,0.2,0.1,0.4,0.1,0.6c-0.1,0.2-0.2,0.4-0.4,0.5L4.6,9C4.5,9,4.3,9.1,4.2,9.1z"
			/>
		<path id="Shape_4_" class="st0" d="M4.2,8.6C4.1,8.6,4,8.5,3.9,8.4C3.9,8.3,3.9,8.1,4,8l6.6-3.9c0.1-0.1,0.3,0,0.4,0.1
			c0.1,0.1,0,0.3-0.1,0.4L4.4,8.5C4.3,8.6,4.3,8.6,4.2,8.6z"/>
		<path class="st0" d="M4.4,17.3c-0.3,0-0.5-0.2-0.7-0.4c-0.1-0.2-0.1-0.4-0.1-0.6c0.1-0.2,0.2-0.4,0.4-0.5l6.6-3.9
			c0.1-0.1,0.3-0.1,0.4-0.1c0.3,0,0.5,0.2,0.7,0.4c0.1,0.2,0.1,0.4,0.1,0.6c-0.1,0.2-0.2,0.4-0.4,0.5l-6.6,3.9
			C4.7,17.2,4.6,17.3,4.4,17.3z"/>
		<path id="Shape_5_" class="st0" d="M4.4,16.8c-0.1,0-0.2-0.1-0.3-0.1c-0.1-0.1,0-0.3,0.1-0.4l6.6-3.9c0.1-0.1,0.3,0,0.4,0.1
			c0.1,0.1,0,0.3-0.1,0.4l-6.6,3.9C4.5,16.8,4.5,16.8,4.4,16.8z"/>
		<path class="st0" d="M10.9,13.4c-0.4,0-0.8-0.4-0.8-0.8V4.4c0-0.4,0.4-0.8,0.8-0.8c0.4,0,0.8,0.4,0.8,0.8v8.2
			C11.7,13.1,11.4,13.4,10.9,13.4z"/>
		<path id="Shape_6_" class="st0" d="M10.9,12.9c-0.2,0-0.3-0.1-0.3-0.3V4.4c0-0.2,0.1-0.3,0.3-0.3c0.2,0,0.3,0.1,0.3,0.3v8.2
			C11.2,12.8,11.1,12.9,10.9,12.9z"/>
		<path class="st0" d="M11,25.5c-0.1,0-0.3,0-0.4-0.1l-10.7-6.1c-0.2-0.1-0.4-0.4-0.4-0.7V6.4c0-0.4,0.4-0.8,0.8-0.8
			c0.4,0,0.8,0.4,0.8,0.8v11.7l9.9,5.6l9.9-5.6V6.9L10.6,1c-0.2-0.1-0.3-0.3-0.4-0.5c-0.1-0.2,0-0.4,0.1-0.6
			c0.1-0.2,0.4-0.4,0.7-0.4c0.1,0,0.3,0,0.4,0.1l10.7,6.1c0.2,0.1,0.4,0.4,0.4,0.7v12.2c0,0.3-0.2,0.5-0.4,0.7l-10.7,6.1
			C11.3,25.5,11.1,25.5,11,25.5z"/>
		<path id="Shape_7_" class="st0" d="M11,25c-0.1,0-0.1,0-0.2,0L0.2,18.9C0.1,18.8,0,18.7,0,18.6V6.4c0-0.2,0.1-0.3,0.3-0.3
			c0.2,0,0.3,0.1,0.3,0.3v12L11,24.4l10.4-5.9V6.6l-10.5-6c-0.1-0.1-0.2-0.3-0.1-0.4C10.8,0,11,0,11.2,0l10.7,6.1
			C21.9,6.2,22,6.3,22,6.4v12.2c0,0.1-0.1,0.2-0.2,0.3L11.2,25C11.1,25,11.1,25,11,25z"/>
		<path class="st0" d="M17.8,9.2c-0.3,0-0.6-0.2-0.7-0.4c-0.2-0.4,0-0.9,0.4-1.1l3.9-2c0.1-0.1,0.2-0.1,0.4-0.1
			c0.3,0,0.6,0.2,0.7,0.4c0.2,0.4,0,0.9-0.4,1.1l-3.9,2C18.1,9.2,17.9,9.2,17.8,9.2z"/>
		<path id="Shape_8_" class="st0" d="M17.8,8.7c-0.1,0-0.2-0.1-0.3-0.2c-0.1-0.1,0-0.3,0.1-0.4l3.9-2c0.1-0.1,0.3,0,0.4,0.1
			c0.1,0.1,0,0.3-0.1,0.4l-3.9,2C17.9,8.7,17.8,8.7,17.8,8.7z"/>
		<path class="st0" d="M10.9,25.5c-0.4,0-0.8-0.4-0.8-0.8V20c0-0.4,0.4-0.8,0.8-0.8c0.4,0,0.8,0.4,0.8,0.8v4.7
			C11.7,25.1,11.4,25.5,10.9,25.5z"/>
		<path id="Shape_9_" class="st0" d="M10.9,25c-0.2,0-0.3-0.1-0.3-0.3V20c0-0.2,0.1-0.3,0.3-0.3c0.2,0,0.3,0.1,0.3,0.3v4.7
			C11.2,24.9,11.1,25,10.9,25z"/>
		<path class="st0" d="M10.9,20.9c-0.3,0-0.6-0.2-0.7-0.4c-0.2-0.4-0.1-0.9,0.3-1.1l6.2-3.4l0-7.7c0-0.4,0.4-0.8,0.8-0.8
			s0.8,0.4,0.8,0.8l0,8.2c0,0.3-0.2,0.6-0.4,0.7l-6.6,3.6C11.2,20.9,11.1,20.9,10.9,20.9z"/>
		<path id="Shape_10_" class="st0" d="M10.9,20.4c-0.1,0-0.2-0.1-0.3-0.2c-0.1-0.1,0-0.3,0.1-0.4l6.5-3.5l0-8c0-0.2,0.1-0.3,0.3-0.3
			c0.2,0,0.3,0.1,0.3,0.3l0,8.2c0,0.1-0.1,0.2-0.2,0.3l-6.6,3.6C11,20.4,11,20.4,10.9,20.4z"/>
		<path class="st0" d="M17.6,9.1c-0.1,0-0.3,0-0.4-0.1l-6.6-3.9c-0.2-0.1-0.3-0.3-0.4-0.5c-0.1-0.2,0-0.4,0.1-0.6
			c0.1-0.2,0.4-0.4,0.7-0.4c0.1,0,0.3,0,0.4,0.1L18,7.6c0.2,0.1,0.3,0.3,0.4,0.5c0.1,0.2,0,0.4-0.1,0.6C18.1,8.9,17.8,9.1,17.6,9.1z
			"/>
		<path id="Shape_11_" class="st0" d="M17.6,8.6c-0.1,0-0.1,0-0.2,0l-6.6-3.9c-0.1-0.1-0.2-0.3-0.1-0.4c0.1-0.1,0.3-0.2,0.4-0.1
			L17.7,8c0.1,0.1,0.2,0.3,0.1,0.4C17.8,8.5,17.7,8.6,17.6,8.6z"/>
		<path class="st0" d="M17.6,17.3c-0.1,0-0.3,0-0.4-0.1l-6.6-3.9c-0.2-0.1-0.3-0.3-0.4-0.5c-0.1-0.2,0-0.4,0.1-0.6
			c0.1-0.2,0.4-0.4,0.7-0.4c0.1,0,0.3,0,0.4,0.1l6.6,3.9c0.2,0.1,0.3,0.3,0.4,0.5c0.1,0.2,0,0.4-0.1,0.6
			C18.1,17.1,17.8,17.3,17.6,17.3z"/>
		<path id="Shape_12_" class="st0" d="M17.6,16.8c-0.1,0-0.1,0-0.1,0l-6.6-3.9c-0.1-0.1-0.2-0.3-0.1-0.4c0.1-0.1,0.3-0.2,0.4-0.1
			l6.6,3.9c0.1,0.1,0.2,0.3,0.1,0.4C17.8,16.7,17.7,16.8,17.6,16.8z"/>
		<path class="st0" d="M10.9,13.4c-0.4,0-0.8-0.4-0.8-0.8V4.4c0-0.4,0.4-0.8,0.8-0.8c0.4,0,0.8,0.4,0.8,0.8v8.2
			C11.7,13.1,11.4,13.4,10.9,13.4z"/>
		<path id="Shape_13_" class="st0" d="M10.9,12.9c-0.2,0-0.3-0.1-0.3-0.3V4.4c0-0.2,0.1-0.3,0.3-0.3c0.2,0,0.3,0.1,0.3,0.3v8.2
			C11.2,12.8,11.1,12.9,10.9,12.9z"/>
	</g>
</g>
</svg>
