<?xml version="1.0" encoding="utf-8"?>
<!-- Generator: Adobe Illustrator 22.1.0, SVG Export Plug-In . SVG Version: 6.00 Build 0)  -->
<svg version="1.1" id="Layer_1" xmlns="http://www.w3.org/2000/svg" xmlns:xlink="http://www.w3.org/1999/xlink" x="0px" y="0px"
	 viewBox="0 0 28 28" style="enable-background:new 0 0 28 28;" xml:space="preserve">
<style type="text/css">
	.st0{fill:#D7DAE0;}
</style>
<title>ic_spocr</title>
<desc>Created with Sketch.</desc>
<g id="ic_spocr">
	<g id="ic_spocr_3" transform="translate(3.000000, 1.000000)">
		<path class="st0" d="M11,22.9c-0.1,0-0.2,0-0.3-0.1l-8.6-4.9c-0.2-0.1-0.3-0.3-0.3-0.6V7.6c0-0.2,0.1-0.4,0.3-0.6l8.6-4.9
			c0.1-0.1,0.2-0.1,0.3-0.1c0.2,0,0.4,0.1,0.6,0.3c0.1,0.1,0.1,0.3,0.1,0.5c0,0.2-0.2,0.3-0.3,0.4L3.1,8v9l7.9,4.5l7.9-4.5V7.6
			c0-0.4,0.3-0.6,0.6-0.6c0.4,0,0.6,0.3,0.6,0.6v9.8c0,0.2-0.1,0.4-0.3,0.6l-8.6,4.9C11.2,22.9,11.1,22.9,11,22.9z"/>
		<path id="Shape" class="st0" d="M11,22.5c0,0-0.1,0-0.1,0l-8.6-4.9c-0.1,0-0.1-0.1-0.1-0.2V7.6c0-0.1,0-0.2,0.1-0.2l8.6-4.9
			c0.1-0.1,0.3,0,0.3,0.1c0.1,0.1,0,0.3-0.1,0.3L2.7,7.8v9.5L11,22l8.3-4.7V7.6c0-0.1,0.1-0.2,0.2-0.2s0.2,0.1,0.2,0.2v9.8
			c0,0.1,0,0.2-0.1,0.2l-8.6,4.9C11.1,22.5,11,22.5,11,22.5z"/>
		<path class="st0" d="M5.6,9.8c-0.1,0-0.2,0-0.3-0.1L2.2,8.2C1.8,8,1.7,7.7,1.9,7.3C2,7.1,2.2,7,2.4,7c0.1,0,0.2,0,0.3,0.1l3.1,1.6
			c0.3,0.2,0.4,0.5,0.3,0.9C6,9.7,5.8,9.8,5.6,9.8z"/>
		<path id="Shape_1_" class="st0" d="M5.6,9.4c0,0-0.1,0-0.1,0L2.3,7.8C2.2,7.8,2.2,7.6,2.2,7.5c0.1-0.1,0.2-0.2,0.3-0.1L5.7,9
			c0.1,0.1,0.2,0.2,0.1,0.3C5.7,9.4,5.6,9.4,5.6,9.4z"/>
		<path class="st0" d="M11,22.9c-0.4,0-0.6-0.3-0.6-0.6v-3.6c0-0.4,0.3-0.6,0.6-0.6c0.4,0,0.6,0.3,0.6,0.6v3.6
			C11.6,22.6,11.3,22.9,11,22.9z"/>
		<path id="Shape_2_" class="st0" d="M11,22.5c-0.1,0-0.2-0.1-0.2-0.2v-3.6c0-0.1,0.1-0.2,0.2-0.2s0.2,0.1,0.2,0.2v3.6
			C11.2,22.4,11.1,22.5,11,22.5z"/>
		<path class="st0" d="M10.9,19.2c-0.1,0-0.2,0-0.3-0.1l-5.3-2.9c-0.2-0.1-0.3-0.3-0.3-0.6V9.1c0-0.4,0.3-0.6,0.6-0.6
			s0.6,0.3,0.6,0.6l0,6.2l5,2.7c0.3,0.2,0.4,0.6,0.3,0.9C11.3,19.1,11.1,19.2,10.9,19.2z"/>
		<path id="Shape_3_" class="st0" d="M10.9,18.8c0,0-0.1,0-0.1,0l-5.3-2.9c-0.1,0-0.1-0.1-0.1-0.2l0-6.6c0-0.1,0.1-0.2,0.2-0.2
			c0.1,0,0.2,0.1,0.2,0.2l0,6.4l5.2,2.8c0.1,0.1,0.2,0.2,0.1,0.3C11,18.8,10.9,18.8,10.9,18.8z"/>
		<path class="st0" d="M5.6,9.8C5.3,9.8,5.1,9.6,5,9.4C4.9,9.3,4.9,9.1,4.9,9c0-0.2,0.1-0.3,0.3-0.4l5.3-3.1
			c0.1-0.1,0.2-0.1,0.3-0.1c0.2,0,0.4,0.1,0.5,0.3c0.1,0.1,0.1,0.3,0.1,0.5c0,0.2-0.1,0.3-0.3,0.4L5.9,9.7C5.8,9.7,5.7,9.8,5.6,9.8z
			"/>
		<path id="Shape_4_" class="st0" d="M5.6,9.4c-0.1,0-0.2,0-0.2-0.1C5.3,9.1,5.3,9,5.4,8.9l5.3-3.1c0.1-0.1,0.3,0,0.3,0.1
			c0.1,0.1,0,0.3-0.1,0.3L5.7,9.3C5.6,9.3,5.6,9.4,5.6,9.4z"/>
		<path class="st0" d="M5.7,16.3c-0.2,0-0.4-0.1-0.5-0.3c-0.1-0.1-0.1-0.3-0.1-0.5c0-0.2,0.1-0.3,0.3-0.4l5.3-3.1
			C10.8,12,10.9,12,11,12c0.2,0,0.4,0.1,0.5,0.3c0.1,0.1,0.1,0.3,0.1,0.5c0,0.2-0.1,0.3-0.3,0.4l-5.3,3.1C6,16.3,5.9,16.3,5.7,16.3z
			"/>
		<path id="Shape_5_" class="st0" d="M5.7,15.9c-0.1,0-0.2,0-0.2-0.1c-0.1-0.1,0-0.3,0.1-0.3l5.3-3.1c0.1-0.1,0.3,0,0.3,0.1
			c0.1,0.1,0,0.3-0.1,0.3l-5.3,3.1C5.8,15.9,5.8,15.9,5.7,15.9z"/>
		<path class="st0" d="M11,13.2c-0.4,0-0.6-0.3-0.6-0.6V6c0-0.4,0.3-0.6,0.6-0.6c0.4,0,0.6,0.3,0.6,0.6v6.6
			C11.6,12.9,11.3,13.2,11,13.2z"/>
		<path id="Shape_6_" class="st0" d="M11,12.8c-0.1,0-0.2-0.1-0.2-0.2V6c0-0.1,0.1-0.2,0.2-0.2s0.2,0.1,0.2,0.2v6.6
			C11.2,12.7,11.1,12.8,11,12.8z"/>
		<path class="st0" d="M11,22.9c-0.1,0-0.2,0-0.3-0.1l-8.6-4.9c-0.2-0.1-0.3-0.3-0.3-0.6V7.6C1.8,7.3,2.1,7,2.4,7
			c0.4,0,0.6,0.3,0.6,0.6V17l7.9,4.5l7.9-4.5V8l-8.2-4.7c-0.1-0.1-0.3-0.2-0.3-0.4c0-0.2,0-0.3,0.1-0.5c0.1-0.2,0.3-0.3,0.6-0.3
			c0.1,0,0.2,0,0.3,0.1l8.6,4.9c0.2,0.1,0.3,0.3,0.3,0.6v9.8c0,0.2-0.1,0.4-0.3,0.6l-8.6,4.9C11.2,22.9,11.1,22.9,11,22.9z"/>
		<path id="Shape_7_" class="st0" d="M11,22.5c0,0-0.1,0-0.1,0l-8.6-4.9c-0.1,0-0.1-0.1-0.1-0.2V7.6c0-0.1,0.1-0.2,0.2-0.2
			c0.1,0,0.2,0.1,0.2,0.2v9.6L11,22l8.3-4.7V7.8l-8.4-4.8c-0.1-0.1-0.2-0.2-0.1-0.3c0.1-0.1,0.2-0.2,0.3-0.1l8.6,4.9
			c0.1,0,0.1,0.1,0.1,0.2v9.8c0,0.1,0,0.2-0.1,0.2l-8.6,4.9C11.1,22.5,11,22.5,11,22.5z"/>
		<path class="st0" d="M16.4,9.8c-0.2,0-0.5-0.1-0.6-0.4c-0.2-0.3,0-0.7,0.3-0.9l3.1-1.6C19.4,7,19.5,7,19.6,7
			c0.2,0,0.5,0.1,0.6,0.4c0.2,0.3,0,0.7-0.3,0.9l-3.1,1.6C16.6,9.8,16.5,9.8,16.4,9.8z"/>
		<path id="Shape_8_" class="st0" d="M16.4,9.4c-0.1,0-0.2,0-0.2-0.1c-0.1-0.1,0-0.3,0.1-0.3l3.1-1.6c0.1-0.1,0.3,0,0.3,0.1
			c0.1,0.1,0,0.3-0.1,0.3l-3.1,1.6C16.5,9.4,16.5,9.4,16.4,9.4z"/>
		<path class="st0" d="M11,22.9c-0.4,0-0.6-0.3-0.6-0.6v-3.7c0-0.4,0.3-0.6,0.6-0.6c0.4,0,0.6,0.3,0.6,0.6v3.7
			C11.6,22.6,11.3,22.9,11,22.9z"/>
		<path id="Shape_9_" class="st0" d="M11,22.5c-0.1,0-0.2-0.1-0.2-0.2v-3.7c0-0.1,0.1-0.2,0.2-0.2s0.2,0.1,0.2,0.2v3.7
			C11.2,22.4,11.1,22.5,11,22.5z"/>
		<path class="st0" d="M11,19.2c-0.2,0-0.5-0.1-0.6-0.3c-0.2-0.3,0-0.7,0.3-0.9l5-2.7l0-6.2c0-0.4,0.3-0.6,0.6-0.6
			c0.4,0,0.6,0.3,0.6,0.6l0,6.6c0,0.2-0.1,0.5-0.3,0.6l-5.3,2.9C11.2,19.2,11.1,19.2,11,19.2z"/>
		<path id="Shape_10_" class="st0" d="M11,18.8c-0.1,0-0.2,0-0.2-0.1c-0.1-0.1,0-0.3,0.1-0.3l5.2-2.8l0-6.4c0-0.1,0.1-0.2,0.2-0.2
			c0.1,0,0.2,0.1,0.2,0.2l0,6.6c0,0.1,0,0.2-0.1,0.2l-5.3,2.9C11,18.8,11,18.8,11,18.8z"/>
		<path class="st0" d="M16.3,9.8c-0.1,0-0.2,0-0.3-0.1l-5.3-3.1c-0.1-0.1-0.3-0.2-0.3-0.4c0-0.2,0-0.3,0.1-0.5
			c0.1-0.2,0.3-0.3,0.5-0.3c0.1,0,0.2,0,0.3,0.1l5.3,3.1c0.1,0.1,0.3,0.2,0.3,0.4c0,0.2,0,0.3-0.1,0.5C16.7,9.6,16.5,9.8,16.3,9.8z"
			/>
		<path id="Shape_11_" class="st0" d="M16.3,9.4c0,0-0.1,0-0.1,0l-5.3-3.1c-0.1-0.1-0.2-0.2-0.1-0.3c0.1-0.1,0.2-0.2,0.3-0.1
			l5.3,3.1c0.1,0.1,0.2,0.2,0.1,0.3C16.4,9.3,16.3,9.4,16.3,9.4z"/>
		<path class="st0" d="M16.2,16.3c-0.1,0-0.2,0-0.3-0.1l-5.3-3.1c-0.1-0.1-0.3-0.2-0.3-0.4c0-0.2,0-0.3,0.1-0.5
			c0.1-0.2,0.3-0.3,0.5-0.3c0.1,0,0.2,0,0.3,0.1l5.3,3.1c0.1,0.1,0.3,0.2,0.3,0.4c0,0.2,0,0.3-0.1,0.5
			C16.7,16.2,16.5,16.3,16.2,16.3z"/>
		<path id="Shape_12_" class="st0" d="M16.3,15.9c0,0-0.1,0-0.1,0l-5.3-3.1c-0.1-0.1-0.2-0.2-0.1-0.3c0.1-0.1,0.2-0.2,0.3-0.1
			l5.3,3.1c0.1,0.1,0.2,0.2,0.1,0.3C16.4,15.9,16.3,15.9,16.3,15.9z"/>
		<path class="st0" d="M11,13.2c-0.4,0-0.6-0.3-0.6-0.6V6c0-0.4,0.3-0.6,0.6-0.6c0.4,0,0.6,0.3,0.6,0.6v6.6
			C11.6,12.9,11.3,13.2,11,13.2z"/>
		<path id="Shape_13_" class="st0" d="M11,12.8c-0.1,0-0.2-0.1-0.2-0.2V6c0-0.1,0.1-0.2,0.2-0.2s0.2,0.1,0.2,0.2v6.6
			C11.2,12.7,11.1,12.8,11,12.8z"/>
	</g>
</g>
</svg>
